# xmcd
#
# Track frame offsets:
#	150
#	19391
#	43047
#	59818
#	77837
#	90196
#	115893
#	133203
#	149106
#	163321
#	177174
#	197345
#	208982
#	226183
#	248085
#	260480
#	282455
#	294198
#
# Disc length: 4139 seconds
# Revision: 0
# Processed by: cddbd v1.5.2PL0 Copyright (c) Steve Scherf et al.
# Submitted via: dBpowerAMP V12.0
#
DISCID=14102912
DTITLE=Jace Everett - Good Times: The Best Of
DYEAR=2015
DGENRE=Country
TTITLE0=More To Life (C'mon C'mon)
TTITLE1=Good Times
TTITLE2=Like A Song
TTITLE3=Business Is Booming
TTITLE4=Bad Things (Theme from "True Blood"
TTITLE5=God Made You Mean
TTITLE6=Pennsylvania
TTITLE7=The Goodlife
TTITLE8=Pretty Good Plan
TTITLE9=Autumn
TTITLE10=Little Black Dress
TTITLE11=No Place To Hide (Mountain Mix)
TTITLE12=One Of Them
TTITLE13=Let's Begin Again
TTITLE14=Saphirra (Live Trio)
TTITLE15=Lloyd's Summer Vacation (Live Trio)
TTITLE16=Love Is Gone (Live Trio)
TTITLE17=Down So Long (Live Trio)
EXTD=
EXTT0=
EXTT1=
EXTT2=
EXTT3=
EXTT4=
EXTT5=
EXTT6=
EXTT7=
EXTT8=
EXTT9=
EXTT10=
EXTT11=
EXTT12=
EXTT13=
EXTT14=
EXTT15=
EXTT16=
EXTT17=
PLAYORDER=
